<svg width="172" height="204" viewBox="0 0 172 204" fill="none" xmlns="http://www.w3.org/2000/svg">
<path d="M134 32H38C36.4087 32 34.8826 32.6321 33.7574 33.7574C32.6321 34.8826 32 36.4087 32 38V86C32 87.5913 32.6321 89.1174 33.7574 90.2426C34.8826 91.3679 36.4087 92 38 92H134C135.591 92 137.117 91.3679 138.243 90.2426C139.368 89.1174 140 87.5913 140 86V38C140 36.4087 139.368 34.8826 138.243 33.7574C137.117 32.6321 135.591 32 134 32ZM128 80H44V44H128V80ZM158 0H14C10.287 0 6.72602 1.475 4.10051 4.10051C1.475 6.72602 0 10.287 0 14V190C0 193.713 1.475 197.274 4.10051 199.899C6.72602 202.525 10.287 204 14 204H158C161.713 204 165.274 202.525 167.899 199.899C170.525 197.274 172 193.713 172 190V14C172 10.287 170.525 6.72602 167.899 4.10051C165.274 1.475 161.713 0 158 0ZM160 190C160 190.53 159.789 191.039 159.414 191.414C159.039 191.789 158.53 192 158 192H14C13.4696 192 12.9609 191.789 12.5858 191.414C12.2107 191.039 12 190.53 12 190V14C12 13.4696 12.2107 12.9609 12.5858 12.5858C12.9609 12.2107 13.4696 12 14 12H158C158.53 12 159.039 12.2107 159.414 12.5858C159.789 12.9609 160 13.4696 160 14V190ZM56 122C56 123.978 55.4135 125.911 54.3147 127.556C53.2159 129.2 51.6541 130.482 49.8268 131.239C47.9996 131.996 45.9889 132.194 44.0491 131.808C42.1093 131.422 40.3275 130.47 38.9289 129.071C37.5304 127.673 36.578 125.891 36.1921 123.951C35.8063 122.011 36.0043 120 36.7612 118.173C37.5181 116.346 38.7998 114.784 40.4443 113.685C42.0888 112.586 44.0222 112 46 112C48.6522 112 51.1957 113.054 53.0711 114.929C54.9464 116.804 56 119.348 56 122ZM96 122C96 123.978 95.4135 125.911 94.3147 127.556C93.2159 129.2 91.6541 130.482 89.8268 131.239C87.9996 131.996 85.9889 132.194 84.0491 131.808C82.1093 131.422 80.3275 130.47 78.9289 129.071C77.5304 127.673 76.578 125.891 76.1921 123.951C75.8063 122.011 76.0043 120 76.7612 118.173C77.5181 116.346 78.7998 114.784 80.4443 113.685C82.0888 112.586 84.0222 112 86 112C88.6522 112 91.1957 113.054 93.0711 114.929C94.9464 116.804 96 119.348 96 122ZM136 122C136 123.978 135.414 125.911 134.315 127.556C133.216 129.2 131.654 130.482 129.827 131.239C128 131.996 125.989 132.194 124.049 131.808C122.109 131.422 120.327 130.47 118.929 129.071C117.53 127.673 116.578 125.891 116.192 123.951C115.806 122.011 116.004 120 116.761 118.173C117.518 116.346 118.8 114.784 120.444 113.685C122.089 112.586 124.022 112 126 112C128.652 112 131.196 113.054 133.071 114.929C134.946 116.804 136 119.348 136 122ZM56 162C56 163.978 55.4135 165.911 54.3147 167.556C53.2159 169.2 51.6541 170.482 49.8268 171.239C47.9996 171.996 45.9889 172.194 44.0491 171.808C42.1093 171.422 40.3275 170.47 38.9289 169.071C37.5304 167.673 36.578 165.891 36.1921 163.951C35.8063 162.011 36.0043 160 36.7612 158.173C37.5181 156.346 38.7998 154.784 40.4443 153.685C42.0888 152.586 44.0222 152 46 152C48.6522 152 51.1957 153.054 53.0711 154.929C54.9464 156.804 56 159.348 56 162ZM96 162C96 163.978 95.4135 165.911 94.3147 167.556C93.2159 169.2 91.6541 170.482 89.8268 171.239C87.9996 171.996 85.9889 172.194 84.0491 171.808C82.1093 171.422 80.3275 170.47 78.9289 169.071C77.5304 167.673 76.578 165.891 76.1921 163.951C75.8063 162.011 76.0043 160 76.7612 158.173C77.5181 156.346 78.7998 154.784 80.4443 153.685C82.0888 152.586 84.0222 152 86 152C88.6522 152 91.1957 153.054 93.0711 154.929C94.9464 156.804 96 159.348 96 162ZM136 162C136 163.978 135.414 165.911 134.315 167.556C133.216 169.2 131.654 170.482 129.827 171.239C128 171.996 125.989 172.194 124.049 171.808C122.109 171.422 120.327 170.47 118.929 169.071C117.53 167.673 116.578 165.891 116.192 163.951C115.806 162.011 116.004 160 116.761 158.173C117.518 156.346 118.8 154.784 120.444 153.685C122.089 152.586 124.022 152 126 152C128.652 152 131.196 153.054 133.071 154.929C134.946 156.804 136 159.348 136 162Z" fill="white"/>
</svg>
