<svg width="30" height="30" viewBox="0 0 30 30" fill="none" xmlns="http://www.w3.org/2000/svg">
<path d="M15 0C6.75 0 0 6.705 0 15V26.595C0 28.5 1.5 30 3.405 30H15C23.295 30 30 23.25 30 15C30 6.75 23.25 0 15 0ZM18.045 6.18C20.565 6.18 22.935 8.1 22.935 10.77C22.935 11.01 22.935 11.25 22.905 11.535C22.83 12.24 22.185 12.75 21.48 12.66C21.3132 12.6354 21.153 12.5774 21.0091 12.4895C20.8651 12.4016 20.7404 12.2855 20.6424 12.1483C20.5444 12.011 20.4751 11.8554 20.4386 11.6908C20.4021 11.5261 20.3991 11.3558 20.43 11.19C20.43 11.1 20.445 10.98 20.445 10.77C20.445 9.255 19.215 8.67 18.045 8.67C16.875 8.67 15.825 9.66 15.825 10.77C15.84 12.045 15.825 13.32 15.825 14.61L18 14.58C19.68 14.55 19.695 17.1 18 17.085L15.825 17.1L15.81 20.685C15.54 23.505 13.155 25.74 10.275 25.74C7.23 25.74 4.71 23.25 4.71 20.19C4.74192 18.6836 5.36886 17.251 6.45379 16.2055C7.53872 15.1599 8.99343 14.5863 10.5 14.61L12.225 14.595V17.1L10.5 17.115H10.455C8.715 17.16 7.23 18.345 7.215 20.205C7.215 21.885 8.58 23.25 10.275 23.25C12 23.25 13.32 22.005 13.32 20.205C13.35 17.19 13.305 13.875 13.32 10.755C13.32 10.575 13.335 10.44 13.35 10.245C13.635 7.935 15.705 6.18 18.045 6.18Z" fill="gray"/>
</svg>
