<svg width="22" height="22" viewBox="0 0 22 22" fill="none" xmlns="http://www.w3.org/2000/svg">
<path d="M21 21H1" stroke="white" stroke-width="1.5" stroke-linecap="round"/>
<path d="M20 21V13.5C20 13.1022 19.842 12.7206 19.5607 12.4393C19.2794 12.158 18.8978 12 18.5 12H15.5C15.1022 12 14.7206 12.158 14.4393 12.4393C14.158 12.7206 14 13.1022 14 13.5V21" stroke="white" stroke-width="1.5"/>
<path d="M14 21V8M8 21V4C8 2.586 8 1.879 8.44 1.44C8.878 1 9.585 1 11 1C12.414 1 13.121 1 13.56 1.44C14 1.878 14 2.585 14 4" stroke="white" stroke-width="1.5" stroke-linecap="round" stroke-linejoin="round"/>
<path d="M8 21V8.5C8 8.10218 7.84196 7.72064 7.56066 7.43934C7.27936 7.15804 6.89782 7 6.5 7H3.5C3.10218 7 2.72064 7.15804 2.43934 7.43934C2.15804 7.72064 2 8.10218 2 8.5V15M2 21V18.75" stroke="white" stroke-width="1.5" stroke-linecap="round"/>
</svg>
