<svg width="220" height="191" viewBox="0 0 220 191" fill="none" xmlns="http://www.w3.org/2000/svg">
<path d="M214 120H204V22C204 16.1652 201.682 10.5694 197.556 6.44365C193.431 2.31785 187.835 0 182 0H38C32.1652 0 26.5694 2.31785 22.4436 6.44365C18.3178 10.5694 16 16.1652 16 22V120H6C4.4087 120 2.88258 120.632 1.75736 121.757C0.63214 122.883 0 124.409 0 126V142C0 147.835 2.31785 153.431 6.44365 157.556C10.5695 161.682 16.1652 164 22 164H198C203.835 164 209.431 161.682 213.556 157.556C217.682 153.431 220 147.835 220 142V126C220 124.409 219.368 122.883 218.243 121.757C217.117 120.632 215.591 120 214 120ZM28 22C28 19.3478 29.0536 16.8043 30.9289 14.9289C32.8043 13.0536 35.3478 12 38 12H182C184.652 12 187.196 13.0536 189.071 14.9289C190.946 16.8043 192 19.3478 192 22V120H28V22ZM208 142C208 144.652 206.946 147.196 205.071 149.071C203.196 150.946 200.652 152 198 152H22C19.3478 152 16.8043 150.946 14.9289 149.071C13.0536 147.196 12 144.652 12 142V132H208V142ZM132 38C132 39.5913 131.368 41.1174 130.243 42.2426C129.117 43.3679 127.591 44 126 44H94C92.4087 44 90.8826 43.3679 89.7574 42.2426C88.6321 41.1174 88 39.5913 88 38C88 36.4087 88.6321 34.8826 89.7574 33.7574C90.8826 32.6321 92.4087 32 94 32H126C127.591 32 129.117 32.6321 130.243 33.7574C131.368 34.8826 132 36.4087 132 38Z" fill="white"/>
</svg>
