<svg width="10" height="9" viewBox="0 0 10 9" fill="none" xmlns="http://www.w3.org/2000/svg">
<path d="M9.00017 9C9.26539 9 9.51974 8.89464 9.70728 8.70711C9.89482 8.51957 10.0002 8.26522 10.0002 8V5.558C10.0002 5.29278 9.89482 5.03843 9.70728 4.85089C9.51974 4.66336 9.26539 4.558 9.00017 4.558H7.61217C7.61217 4.207 7.63317 3.855 7.67417 3.504C7.73617 3.132 7.84017 2.801 7.98417 2.512C8.12917 2.222 8.31517 1.995 8.54317 1.829C8.77017 1.643 9.05917 1.55 9.41117 1.55V0C8.83217 0 8.32617 0.124 7.89117 0.372C7.45996 0.617486 7.08922 0.956452 6.80617 1.364C6.5221 1.81331 6.31272 2.3057 6.18617 2.822C6.05866 3.39176 5.99626 3.97416 6.00017 4.558V8C6.00017 8.26522 6.10553 8.51957 6.29307 8.70711C6.4806 8.89464 6.73496 9 7.00017 9H9.00017ZM3.00017 9C3.26539 9 3.51974 8.89464 3.70728 8.70711C3.89482 8.51957 4.00017 8.26522 4.00017 8V5.558C4.00017 5.29278 3.89482 5.03843 3.70728 4.85089C3.51974 4.66336 3.26539 4.558 3.00017 4.558H1.61217C1.61217 4.207 1.63317 3.855 1.67417 3.504C1.73617 3.132 1.84017 2.801 1.98417 2.512C2.12917 2.222 2.31517 1.995 2.54317 1.829C2.77017 1.643 3.05917 1.55 3.41117 1.55V0C2.83217 0 2.32617 0.124 1.89117 0.372C1.45996 0.617486 1.08922 0.956452 0.806173 1.364C0.522098 1.81331 0.312718 2.3057 0.186173 2.822C0.0586593 3.39176 -0.00374057 3.97416 0.000173278 4.558V8C0.000173278 8.26522 0.10553 8.51957 0.293066 8.70711C0.480603 8.89464 0.734957 9 1.00017 9H3.00017Z" fill="white"/>
</svg>
