<svg width="40" height="40" viewBox="0 0 40 40" fill="none" xmlns="http://www.w3.org/2000/svg">
<rect width="40" height="40" rx="20" fill="#DADADA"/>
<path d="M16.9058 16.0034L19.4173 12.8902C20.2859 11.8135 21.4059 11.2018 22.7774 11.0551C24.1489 10.9084 25.3725 11.2693 26.4483 12.138C27.5249 13.0065 28.1366 14.1266 28.2834 15.4981C28.4301 16.8696 28.0691 18.0932 27.2005 19.1689L24.689 22.2822L23.1323 21.0264L25.6438 17.9132C26.1671 17.2646 26.3848 16.5301 26.297 15.7099C26.2093 14.8896 25.8411 14.2178 25.1925 13.6946C24.5439 13.1714 23.8095 12.9536 22.9892 13.0414C22.1689 13.1292 21.4972 13.4973 20.974 14.1459L18.4625 17.2592L16.9058 16.0034ZM21.9027 16.18L23.4593 17.4357L18.4364 23.6623L16.8797 22.4065L21.9027 16.18ZM15.6501 17.5601L17.2067 18.8158L14.6952 21.9291C14.172 22.5777 13.9543 23.3121 14.042 24.1324C14.1298 24.9527 14.4979 25.6244 15.1465 26.1477C15.7951 26.6709 16.5296 26.8886 17.3499 26.8009C18.1701 26.7131 18.8419 26.3449 19.3651 25.6963L21.8766 22.5831L23.4332 23.8388L20.9217 26.9521C20.0532 28.0287 18.9331 28.6404 17.5616 28.7872C16.1901 28.9339 14.9665 28.5729 13.8908 27.7043C12.8141 26.8357 12.2024 25.7157 12.0557 24.3442C11.909 22.9727 12.2699 21.7491 13.1386 20.6733L15.6501 17.5601Z" fill="black"/>
</svg>
