<svg width="176" height="208" viewBox="0 0 176 208" fill="none" xmlns="http://www.w3.org/2000/svg">
<path d="M160 0H16C11.7565 0 7.68687 1.68571 4.68629 4.68629C1.68571 7.68687 0 11.7565 0 16V192C0 196.243 1.68571 200.313 4.68629 203.314C7.68687 206.314 11.7565 208 16 208H160C164.243 208 168.313 206.314 171.314 203.314C174.314 200.313 176 196.243 176 192V16C176 11.7565 174.314 7.68687 171.314 4.68629C168.313 1.68571 164.243 0 160 0ZM48 176C45.6266 176 43.3066 175.296 41.3332 173.978C39.3598 172.659 37.8217 170.785 36.9134 168.592C36.0052 166.399 35.7676 163.987 36.2306 161.659C36.6936 159.331 37.8365 157.193 39.5147 155.515C41.1929 153.836 43.3311 152.694 45.6589 152.231C47.9867 151.768 50.3995 152.005 52.5922 152.913C54.7849 153.822 56.6591 155.36 57.9776 157.333C59.2962 159.307 60 161.627 60 164C60 167.183 58.7357 170.235 56.4853 172.485C54.2348 174.736 51.1826 176 48 176ZM48 136C45.6266 136 43.3066 135.296 41.3332 133.978C39.3598 132.659 37.8217 130.785 36.9134 128.592C36.0052 126.399 35.7676 123.987 36.2306 121.659C36.6936 119.331 37.8365 117.193 39.5147 115.515C41.1929 113.836 43.3311 112.694 45.6589 112.231C47.9867 111.768 50.3995 112.005 52.5922 112.913C54.7849 113.822 56.6591 115.36 57.9776 117.333C59.2962 119.307 60 121.627 60 124C60 127.183 58.7357 130.235 56.4853 132.485C54.2348 134.736 51.1826 136 48 136ZM88 176C85.6266 176 83.3066 175.296 81.3332 173.978C79.3598 172.659 77.8217 170.785 76.9134 168.592C76.0052 166.399 75.7676 163.987 76.2306 161.659C76.6936 159.331 77.8365 157.193 79.5147 155.515C81.1929 153.836 83.3311 152.694 85.6589 152.231C87.9867 151.768 90.3995 152.005 92.5922 152.913C94.7849 153.822 96.6591 155.36 97.9776 157.333C99.2962 159.307 100 161.627 100 164C100 167.183 98.7357 170.235 96.4853 172.485C94.2348 174.736 91.1826 176 88 176ZM88 136C85.6266 136 83.3066 135.296 81.3332 133.978C79.3598 132.659 77.8217 130.785 76.9134 128.592C76.0052 126.399 75.7676 123.987 76.2306 121.659C76.6936 119.331 77.8365 117.193 79.5147 115.515C81.1929 113.836 83.3311 112.694 85.6589 112.231C87.9867 111.768 90.3995 112.005 92.5922 112.913C94.7849 113.822 96.6591 115.36 97.9776 117.333C99.2962 119.307 100 121.627 100 124C100 127.183 98.7357 130.235 96.4853 132.485C94.2348 134.736 91.1826 136 88 136ZM128 176C125.627 176 123.307 175.296 121.333 173.978C119.36 172.659 117.822 170.785 116.913 168.592C116.005 166.399 115.768 163.987 116.231 161.659C116.694 159.331 117.836 157.193 119.515 155.515C121.193 153.836 123.331 152.694 125.659 152.231C127.987 151.768 130.399 152.005 132.592 152.913C134.785 153.822 136.659 155.36 137.978 157.333C139.296 159.307 140 161.627 140 164C140 167.183 138.736 170.235 136.485 172.485C134.235 174.736 131.183 176 128 176ZM128 136C125.627 136 123.307 135.296 121.333 133.978C119.36 132.659 117.822 130.785 116.913 128.592C116.005 126.399 115.768 123.987 116.231 121.659C116.694 119.331 117.836 117.193 119.515 115.515C121.193 113.836 123.331 112.694 125.659 112.231C127.987 111.768 130.399 112.005 132.592 112.913C134.785 113.822 136.659 115.36 137.978 117.333C139.296 119.307 140 121.627 140 124C140 127.183 138.736 130.235 136.485 132.485C134.235 134.736 131.183 136 128 136ZM144 80C144 82.1217 143.157 84.1566 141.657 85.6569C140.157 87.1571 138.122 88 136 88H40C37.8783 88 35.8434 87.1571 34.3431 85.6569C32.8429 84.1566 32 82.1217 32 80V40C32 37.8783 32.8429 35.8434 34.3431 34.3431C35.8434 32.8429 37.8783 32 40 32H136C138.122 32 140.157 32.8429 141.657 34.3431C143.157 35.8434 144 37.8783 144 40V80Z" fill="white"/>
</svg>
